<?xml version="1.0" encoding="UTF-8" standalone="no"?>
<!-- Created with Inkscape (http://www.inkscape.org/) -->

<svg
   version="1.1"
   id="svg1"
   width="1080"
   height="1080"
   viewBox="0 0 1080 1080"
   xmlns="http://www.w3.org/2000/svg"
   xmlns:svg="http://www.w3.org/2000/svg">
  <defs
     id="defs1" />
  <g
     id="g1">
    <path
       style="fill:#ff6600;stroke-width:1.34663"
       d="m 483.64484,1010.6519 c -34.53082,-4.8799 -70.2005,-13.29789 -102.81701,-24.26472 -19.86053,-6.67781 -41.41023,-15.30805 -40.49673,-16.21816 0.20194,-0.20118 11.8227,-1.0388 25.82393,-1.86139 30.11344,-1.76918 47.28509,-4.0115 78.234,-10.21601 26.46246,-5.30508 53.99631,-12.87027 76.08479,-20.90507 21.57281,-7.84721 26.16816,-8.83016 49.53878,-10.5964 48.28571,-3.64922 98.20301,-17.65148 146.45311,-41.08148 121.62861,-59.06216 204.65984,-161.20286 228.86974,-281.54358 5.40011,-26.8425 7.4077,-48.08038 7.4077,-78.36467 0,-53.18235 -9.06033,-100.9844 -27.46808,-144.92086 -19.18902,-45.80124 -49.82546,-77.17699 -100.4621,-102.88638 -23.15873,-11.75821 -44.07049,-17.72 -84.8379,-24.18665 -18.59921,-2.95027 -70.87292,-3.27752 -95.61098,-0.59855 -54.01894,5.84989 -97.47273,17.87653 -138.02992,38.20232 -49.44075,24.7779 -82.62539,51.61728 -111.54896,90.21959 -15.29495,20.41313 -28.04457,45.53288 -36.58641,72.08387 -18.95511,58.91898 -12.95106,130.76877 15.64351,187.20448 24.48653,48.32782 60.39057,85.05958 108.51694,111.01861 l 10.2089,5.50662 -5.91001,2.98408 c -23.02192,11.62424 -89.80555,29.60241 -100.23787,26.98407 -4.27639,-1.0733 -29.54128,-25.45175 -44.76737,-43.19666 -30.99228,-36.11929 -53.7779,-79.8024 -67.63255,-129.66072 -6.46034,-23.2486 -9.52626,-46.12954 -10.36343,-77.34202 -1.18165,-44.05522 2.80505,-72.17781 15.95133,-112.52264 12.48461,-38.31417 32.46221,-74.61802 59.84972,-108.76055 21.19544,-26.4232 61.32823,-61.39518 93.48468,-81.46319 6.29551,-3.92887 24.17207,-13.38258 39.72568,-21.00826 63.9548,-31.35595 123.78206,-45.35571 201.65836,-47.18865 26.09643,-0.61421 36.02244,-1.28143 36.02244,-2.42137 0,-3.32572 -46.64259,-19.90601 -71.72172,-25.49531 -36.75561,-8.19159 -65.9648,-11.54092 -100.64736,-11.54092 -35.4927,0 -60.62558,2.71932 -94.93765,10.27203 -122.57173,26.98028 -231.42872,110.26547 -285.56471,218.48218 -42.89638,85.749 -52.11946,179.19778 -26.59601,269.47236 4.45328,15.75093 11.81993,34.61182 28.66307,73.38623 7.51686,17.3045 15.2313,42.2292 17.62376,56.94081 2.25274,13.85257 1.80099,55.5378 -0.73291,67.62808 -3.41105,16.27546 -11.02946,44.41958 -16.23884,59.98984 -3.25288,9.72251 -4.38754,14.88671 -3.47202,15.80223 1.71483,1.71483 8.12933,-1.00846 40.55706,-17.21852 39.84859,-19.91961 60.61977,-27.91801 90.89775,-35.00216 19.27724,-4.51031 29.73084,-5.81676 64.63841,-8.07829 44.21202,-2.86436 55.0713,-4.3696 87.53117,-12.1331 32.90029,-7.86883 57.88031,-17.20131 93.74373,-35.02248 18.04098,-8.96489 51.87569,-31.03059 70.9892,-46.29647 28.72831,-22.94517 59.07756,-55.05424 75.87102,-80.27048 15.96691,-23.97514 30.99716,-59.6284 36.62526,-86.87885 5.28885,-25.6078 5.92842,-68.09677 1.41464,-93.98066 -2.3304,-13.36356 -7.3125,-31.6766 -12.02048,-44.18455 -4.21798,-11.20613 -16.52003,-35.55365 -24.19807,-47.89148 -13.98273,-22.46878 -44.0465,-52.47941 -70.06745,-69.94361 -9.24817,-6.20699 -16.8164,-11.69135 -16.81827,-12.18748 -0.002,-0.49611 4.13616,-1.84355 9.19565,-2.99432 22.13103,-5.03359 36.45895,-6.47566 70.92562,-7.13852 l 35.01247,-0.67334 5.39881,3.94429 c 6.34516,4.63568 32.41573,38.07948 41.7436,53.54947 11.36202,18.84356 24.6299,47.68011 30.93628,67.23724 13.23791,41.05298 17.5023,70.31326 16.49949,113.21164 -0.87587,37.46808 -4.60115,59.27932 -15.86996,92.9177 -22.75076,67.91287 -66.0815,126.93526 -131.88838,179.65002 -27.74439,22.22471 -51.65202,37.63305 -83.5838,53.86929 -44.95935,22.86033 -69.91123,32.33349 -117.38912,44.56762 -32.09721,8.27083 -53.60992,11.5108 -89.23844,13.43999 -42.91833,2.32391 -70.29218,7.2428 -97.91507,17.59467 -6.13923,2.30072 -41.85716,19.34835 -79.37316,37.8836 l -68.21092,33.70049 -11.24045,0.6528 c -8.76169,0.5089 -13.053165,0.077 -19.460547,-1.9585 -24.243931,-7.7016 -41.098594,-29.8094 -41.312247,-54.18801 -0.09595,-10.94864 -0.419555,-9.89254 23.787409,-77.63251 16.913104,-47.32906 23.409202,-76.6963 21.970176,-99.32166 C 94.941892,763.1203 92.735974,755.41174 83.967843,736.19552 59.129109,681.75902 45.305362,640.14976 37.1292,595.21197 29.531161,553.45166 30.326684,491.87387 39.060282,445.73566 66.348356,301.5771 160.06997,175.49009 293.56609,103.33996 347.69426,74.085508 406.83129,55.074011 470.64838,46.411161 492.9853,43.379037 554.9118,42.194993 578.08641,44.35693 c 119.43683,11.142144 228.56421,61.51467 316.53752,146.11176 90.11427,86.6559 142.88117,210.51562 142.94417,335.53276 0.022,44.0503 -3.5786,73.32246 -14.2226,115.61859 -16.748,66.55173 -51.70711,133.38634 -98.38711,188.09525 -15.03509,17.62112 -50.60554,51.77757 -69.84617,67.06963 -29.67013,23.58124 -57.58099,41.29384 -93.07491,59.06659 -53.23012,26.65371 -101.04345,42.46102 -158.07222,52.25939 -19.10041,3.2817 -24.532,3.6214 -63.96509,4.0008 -31.52933,0.3033 -46.6511,-0.088 -56.35516,-1.4598 z"
       id="path2" />
  </g>
</svg>
